<?xml version="1.0" encoding="UTF-8" standalone="no"?>
<!-- Created with Inkscape (http://www.inkscape.org/) -->

<svg
   width="500"
   height="500"
   viewBox="0 0 132.29167 132.29167"
   version="1.1"
   id="svg1"
   xml:space="preserve"
   xmlns:xlink="http://www.w3.org/1999/xlink"
   xmlns="http://www.w3.org/2000/svg"
   xmlns:svg="http://www.w3.org/2000/svg"><defs
     id="defs1"><pattern
       xlink:href="#Strips1_2"
       preserveAspectRatio="xMidYMid"
       id="pattern7"
       patternTransform="matrix(0,2,-2,0,0,0)"
       x="0"
       y="0" /><pattern
       patternUnits="userSpaceOnUse"
       width="3"
       height="1"
       patternTransform="translate(0,0) scale(2,2)"
       preserveAspectRatio="xMidYMid"
       id="Strips1_2"
       style="fill:#000000">
      <rect
   style="stroke:none"
   x="0"
   y="-0.5"
   width="1"
   height="2"
   id="rect146" />
    </pattern><linearGradient
       id="linearGradient133"><stop
         style="stop-color:#db2c2c;stop-opacity:1;"
         offset="0"
         id="stop133" /><stop
         style="stop-color:#801a1a;stop-opacity:1;"
         offset="1"
         id="stop134" /></linearGradient><linearGradient
       id="linearGradient58"><stop
         style="stop-color:#5f0909;stop-opacity:1;"
         offset="0"
         id="stop58" /><stop
         style="stop-color:#bc1515;stop-opacity:1;"
         offset="1"
         id="stop59" /></linearGradient><linearGradient
       id="linearGradient53"><stop
         style="stop-color:#b8b67c;stop-opacity:0.99215686;"
         offset="0"
         id="stop53" /><stop
         style="stop-color:#f7f5c0;stop-opacity:0.99215686;"
         offset="1"
         id="stop54" /></linearGradient><linearGradient
       id="linearGradient12"><stop
         style="stop-color:#ffa20e;stop-opacity:1;"
         offset="0"
         id="stop11" /><stop
         style="stop-color:#f4b959;stop-opacity:1;"
         offset="1"
         id="stop12" /></linearGradient><linearGradient
       xlink:href="#linearGradient12"
       id="linearGradient10"
       x1="70.643753"
       y1="84.666664"
       x2="70.379166"
       y2="21.425303"
       gradientUnits="userSpaceOnUse"
       gradientTransform="matrix(0.93057051,0,0,0.93057049,2.7781246,3.7149507)" /><linearGradient
       xlink:href="#linearGradient53"
       id="linearGradient54"
       x1="70.618439"
       y1="96.866821"
       x2="70.561409"
       y2="105.63467"
       gradientUnits="userSpaceOnUse" /><linearGradient
       xlink:href="#linearGradient58"
       id="linearGradient59"
       x1="10.001707"
       y1="102.71168"
       x2="10.001707"
       y2="35.359756"
       gradientUnits="userSpaceOnUse" /><linearGradient
       xlink:href="#linearGradient133"
       id="linearGradient134"
       x1="66.145836"
       y1="0"
       x2="66.145836"
       y2="132.29169"
       gradientUnits="userSpaceOnUse" /><linearGradient
       xlink:href="#linearGradient53"
       id="linearGradient2"
       gradientUnits="userSpaceOnUse"
       x1="70.618439"
       y1="96.866821"
       x2="70.561409"
       y2="105.63467" /></defs><g
     id="layer1"><path
       id="rect131"
       style="display:inline;opacity:1;fill:url(#linearGradient134);fill-opacity:1;fill-rule:evenodd;stroke:none;stroke-width:1.64;stroke-linecap:round;stroke-linejoin:round;stroke-miterlimit:11.1;stroke-dasharray:none;stroke-dashoffset:0;stroke-opacity:0.625532;paint-order:stroke fill markers"
       d="M 47.084465,0 C 45.612512,3.4667934e-4 44.140768,0.00201417 42.668713,0.01085205 41.118939,0.01978758 39.56929,0.0376091 38.019902,0.07958171 34.643755,0.1711783 31.238271,0.36974268 27.899589,0.96996663 24.512459,1.5787161 21.359934,2.5724536 18.282605,4.1387655 15.257987,5.6783342 12.490192,7.6903615 10.09034,10.09034 7.6903607,12.490196 5.678463,15.257986 4.1387655,18.282605 2.5724547,21.359935 1.5787145,24.51246 0.96996663,27.899589 0.36974558,31.238271 0.17104888,34.643755 0.07958171,38.019902 0.03746749,39.569289 0.0197661,41.118939 0.01085205,42.668713 -1.2198354e-5,44.508782 0,46.348206 0,48.188273 v 37.018929 c 3.4765586e-4,1.471951 0.0021753,2.943697 0.01085205,4.415751 0.008916,1.549779 0.02661398,3.099422 0.06872966,4.648812 0.09146717,3.376143 0.2901639,6.782145 0.89038492,10.120825 0.60874787,3.38713 1.60248807,6.53914 3.16879887,9.61647 1.5396974,3.02475 3.5515942,5.79241 5.9515745,8.19227 2.399852,2.39997 5.167647,4.412 8.192265,5.95157 3.07733,1.56645 6.229854,2.55993 9.616984,3.1688 3.338682,0.60009 6.744166,0.79879 10.120313,0.89038 1.549387,0.042 3.099036,0.0599 4.648811,0.0687 1.840068,0.0109 3.679492,0.0109 5.51956,0.0109 h 35.915121 c 1.840069,0 3.680007,4e-5 5.520076,-0.0109 1.549774,-0.009 3.098906,-0.0267 4.648295,-0.0687 3.37627,-0.0916 6.782025,-0.29028 10.120825,-0.89038 3.38701,-0.60888 6.53914,-1.60235 9.61647,-3.1688 3.02475,-1.53957 5.7923,-3.5516 8.19227,-5.95157 2.39985,-2.39984 4.412,-5.16752 5.95157,-8.19227 1.56644,-3.07733 2.55992,-6.22986 3.1688,-9.61698 0.6001,-3.3387 0.7988,-6.744163 0.89038,-10.120315 0.042,-1.54939 0.0598,-3.099033 0.0687,-4.648812 0.0109,-1.840067 0.0109,-3.679488 0.0109,-5.519559 V 48.188273 c 0,-1.840068 4e-5,-3.679492 -0.0109,-5.51956 -0.009,-1.549775 -0.0267,-3.099424 -0.0687,-4.648811 -0.0916,-3.376147 -0.29029,-6.781631 -0.89038,-10.120313 -0.60888,-3.38713 -1.60236,-6.539654 -3.1688,-9.616984 -1.53957,-3.024618 -3.55172,-5.792409 -5.95157,-8.192265 C 119.80139,7.6903619 117.03381,5.6783341 114.00906,4.1387655 110.93173,2.5724536 107.7796,1.578716 104.39259,0.96996663 101.05379,0.36974263 97.648035,0.17117829 94.271765,0.07958171 92.722376,0.03758956 91.173244,0.01976317 89.62347,0.01085205 87.783401,1.2210058e-5 85.943463,0 84.103394,0 Z" /><path
       style="display:inline;opacity:1;fill:none;fill-opacity:1;stroke:url(#linearGradient59);stroke-width:2.54;stroke-linecap:round;stroke-linejoin:round;stroke-miterlimit:11.1;stroke-dasharray:10.668, 5.08;stroke-dashoffset:0;stroke-opacity:0.625532"
       d="m 15.558945,116.63218 c 0,0 -5.081592,-9.08894 -5.557238,-20.237662 l 0.08852,-86.304293"
       id="path6" /><path
       style="display:inline;mix-blend-mode:normal;fill:url(#linearGradient2);fill-opacity:1;fill-rule:evenodd;stroke:none;stroke-width:0;stroke-linecap:round;stroke-linejoin:round;stroke-miterlimit:11.1;stroke-dasharray:none;stroke-dashoffset:0"
       d="m 125.75501,89.817177 c 0,0 -5.04704,10.353173 -23.35919,11.086383 -12.83751,0.514 -82.225323,0.24125 -82.225323,0.24125 -2.265527,0.14616 -9.706728,-0.21856 -10.158331,8.40438 -0.3403922,6.49949 7.673559,15.34711 17.320319,15.63943 31.220945,0.94611 -8.739744,-0.34088 70.643029,-0.0711 15.331326,0.0521 27.766756,-12.29644 27.775496,-27.62823 l 0.004,-7.672073 z"
       id="path5" /><text
       xml:space="preserve"
       style="font-size:70.146px;font-family:Roboto;-inkscape-font-specification:Roboto;display:inline;fill:url(#linearGradient10);fill-opacity:1;stroke:#ffa20e;stroke-width:1.52614;stroke-linecap:round;stroke-linejoin:round;stroke-miterlimit:11.1;stroke-dasharray:none;stroke-dashoffset:0;stroke-opacity:1;paint-order:stroke fill markers"
       x="33.234886"
       y="76.707985"
       id="text8"
       transform="scale(1.018996,0.98135813)"><tspan
         id="tspan8"
         style="font-style:normal;font-variant:normal;font-weight:normal;font-stretch:normal;font-size:70.146px;font-family:Serif;-inkscape-font-specification:Serif;fill:url(#linearGradient10);fill-opacity:1;stroke:#ffa20e;stroke-width:1.52614;stroke-dasharray:none;stroke-dashoffset:0;stroke-opacity:1;paint-order:stroke fill markers"
         x="33.234886"
         y="76.707985">字</tspan></text><path
       style="display:inline;mix-blend-mode:normal;fill:url(#linearGradient54);fill-opacity:1;fill-rule:evenodd;stroke:none;stroke-width:0;stroke-linecap:round;stroke-linejoin:round;stroke-miterlimit:11.1;stroke-dasharray:none;stroke-dashoffset:0"
       d="m 125.75501,89.817177 c 0,0 -5.04704,10.353173 -23.35919,11.086383 -12.83751,0.514 -82.225323,0.24125 -82.225323,0.24125 -2.265527,0.14616 -9.706728,-0.21856 -10.158331,8.40438 -0.3403922,6.49949 7.673559,15.34711 17.320319,15.63943 31.220945,0.94611 -8.739744,-0.34088 70.643029,-0.0711 15.331326,0.0521 27.766756,-12.29644 27.775496,-27.62823 l 0.004,-7.672073 z"
       id="path3" /><path
       style="display:inline;opacity:0.0767196;mix-blend-mode:normal;fill:url(#pattern7);fill-opacity:1;fill-rule:evenodd;stroke:none;stroke-width:0;stroke-linecap:round;stroke-linejoin:round;stroke-miterlimit:11.1;stroke-dasharray:none;stroke-dashoffset:0"
       d="m 125.75501,89.817177 c 0,0 -5.04704,10.353173 -23.35919,11.086383 -12.83751,0.514 -82.225323,0.24125 -82.225323,0.24125 -2.265527,0.14616 -9.706728,-0.21856 -10.158331,8.40438 -0.3403922,6.49949 7.673559,15.34711 17.320319,15.63943 31.220945,0.94611 -8.739744,-0.34088 70.643029,-0.0711 15.331326,0.0521 27.766756,-12.29644 27.775496,-27.62823 l 0.004,-7.672073 z"
       id="path4" /></g></svg>
